<svg xmlns="http://www.w3.org/2000/svg" width="60" height="61" viewBox="0 0 60 61" fill="none">
  <g clip-path="url(#clip0_2790_21)">
    <path d="M59.0605 7.6805H0.939494C0.420587 7.6805 1.45888e-06 8.10097 1.45888e-06 8.61987V38.6825C1.45888e-06 39.2014 0.420587 39.6219 0.939494 39.6219C1.45828 39.6219 1.87899 39.2015 1.87899 38.6825V9.55937H58.1211V42.1272H50.4176C49.8987 42.1272 49.4781 42.5476 49.4781 43.0667V50.7702H1.87887V44.6951C1.87887 44.1762 1.45828 43.7556 0.939376 43.7556C0.420587 43.7556 -0.000115729 44.1761 -0.000115729 44.6951V51.7097C-0.000115729 52.2286 0.42047 52.6492 0.939376 52.6492H50.4176C50.6637 52.6492 50.9079 52.5481 51.0819 52.3742L59.725 43.7311C59.899 43.557 60 43.313 60 43.0668V8.61987C60 8.10097 59.5795 7.6805 59.0605 7.6805ZM51.357 49.4417V44.006H56.7926L51.357 49.4417Z" fill="rgb(181, 127, 27)"/>
    <path d="M32.8179 25.1855L31.1984 22.3805V19.1418C31.1982 18.806 31.0192 18.4961 30.7286 18.3283L27.9236 16.7087L26.304 13.9037C26.1362 13.6131 25.8261 13.4341 25.4904 13.4341H22.2516L19.4467 11.8146C19.1561 11.6468 18.7978 11.6468 18.5072 11.8146L15.7022 13.4342H12.4634C12.1276 13.4342 11.8177 13.6134 11.6497 13.9039L10.0302 16.7089L7.2252 18.3284C6.93457 18.4962 6.75551 18.8063 6.75551 19.1419V22.3807L5.13633 25.1856C4.96852 25.4762 4.96852 25.8345 5.13633 26.1251L6.75586 28.9301V32.1689C6.75586 32.5047 6.93504 32.8146 7.22555 32.9825L10.0305 34.602L11.6501 37.407C11.8179 37.6976 12.128 37.8767 12.4636 37.8767H14.0292V47.7013C14.0292 48.4595 14.9244 48.9087 15.5324 48.4528L18.9771 45.8693L22.4218 48.4528C23.0303 48.9091 23.925 48.4586 23.925 47.7013V37.8766H25.4907C25.8265 37.8766 26.1364 37.6974 26.3043 37.4069L27.9238 34.6019L30.7288 32.9823C31.0194 32.8145 31.1985 32.5044 31.1985 32.1688V28.93L32.818 26.125C32.9857 25.8344 32.9857 25.4761 32.8179 25.1855ZM22.0459 45.8224L19.5407 43.9436C19.2066 43.693 18.7474 43.693 18.4133 43.9436L15.9081 45.8224V37.9955L18.5073 39.4961C18.7951 39.6623 19.1589 39.6623 19.4468 39.4961L22.046 37.9955V45.8224H22.0459ZM29.4452 28.2086C29.3629 28.3514 29.3194 28.5135 29.3194 28.6783V31.6266L26.7662 33.1008C26.6234 33.1832 26.5048 33.3018 26.4224 33.4446L24.9482 35.9978H21.9998C21.835 35.9978 21.6729 36.0413 21.5302 36.1237L18.9771 37.5978L16.4239 36.1235C16.2811 36.0412 16.119 35.9977 15.9543 35.9977H13.0059L11.5317 33.4445C11.4493 33.3016 11.3306 33.1831 11.1879 33.1007L8.63484 31.6266V28.6783C8.63484 28.5134 8.59137 28.3513 8.50899 28.2086L7.03477 25.6554L8.50899 23.1023C8.59137 22.9594 8.63484 22.7973 8.63484 22.6326V19.6842L11.188 18.21C11.3309 18.1276 11.4495 18.0091 11.5318 17.8662L13.0061 15.313H15.9544C16.1193 15.313 16.2813 15.2696 16.4241 15.1872L18.9771 13.7131L21.5303 15.1873C21.6731 15.2697 21.8352 15.3132 22 15.3132H24.9483L26.4225 17.8663C26.5049 18.0093 26.6236 18.1278 26.7663 18.2101L29.3195 19.6844V22.6327C29.3195 22.7976 29.363 22.9596 29.4454 23.1024L30.9195 25.6554L29.4452 28.2086Z" fill="rgb(181, 127, 27)"/>
    <path d="M18.977 15.6972C13.4861 15.6972 9.01875 20.1644 9.01875 25.6554C9.01875 31.1465 13.4861 35.6137 18.977 35.6137C24.4679 35.6137 28.9352 31.1465 28.9352 25.6554C28.9352 20.1644 24.4679 15.6972 18.977 15.6972ZM18.977 33.7348C14.5221 33.7348 10.8976 30.1104 10.8976 25.6554C10.8976 21.2004 14.522 17.576 18.977 17.576C23.432 17.576 27.0564 21.2004 27.0564 25.6554C27.0564 30.1104 23.432 33.7348 18.977 33.7348Z" fill="rgb(181, 127, 27)"/>
    <path d="M25.1204 24.9602L19.609 19.9497C19.6083 19.949 19.6073 19.9484 19.6065 19.9477C19.2538 19.6285 18.6967 19.6295 18.3451 19.9497L16.4092 21.7096V21.647C16.4092 21.1281 15.9886 20.7075 15.4697 20.7075C14.9508 20.7075 14.5302 21.128 14.5302 21.647V23.4178L12.8336 24.9602C12.485 25.2769 12.427 25.8217 12.7028 26.204C13.0263 26.6526 13.6876 26.7229 14.0974 26.3506L14.5302 25.9572V30.6659C14.5302 31.1848 14.9508 31.6054 15.4697 31.6054H22.4843C23.0031 31.6054 23.4238 31.1849 23.4238 30.6659V25.9572L23.8566 26.3506C24.2663 26.7231 24.9277 26.6526 25.2512 26.204C25.5271 25.8217 25.4689 25.277 25.1204 24.9602ZM21.5449 24.4028V29.7264H19.9165V26.6575C19.9165 26.1386 19.4959 25.718 18.977 25.718C18.4581 25.718 18.0375 26.1385 18.0375 26.6575V29.7264H16.4091V24.2489L18.9769 21.9146L21.5568 24.2598C21.5497 24.3066 21.5449 24.3541 21.5449 24.4028Z" fill="rgb(181, 127, 27)"/>
    <path d="M45.9332 20.7076H36.0125C35.4936 20.7076 35.073 21.1281 35.073 21.6471C35.073 22.1662 35.4935 22.5866 36.0125 22.5866H45.9332C46.4521 22.5866 46.8727 22.1662 46.8727 21.6471C46.8727 21.1281 46.4522 20.7076 45.9332 20.7076Z" fill="rgb(181, 127, 27)"/>
    <path d="M54.0502 20.7076H49.5408C49.0219 20.7076 48.6013 21.1281 48.6013 21.6471C48.6013 22.1662 49.0218 22.5866 49.5408 22.5866H54.0502C54.5691 22.5866 54.9896 22.1662 54.9896 21.6471C54.9896 21.1281 54.5691 20.7076 54.0502 20.7076Z" fill="rgb(181, 127, 27)"/>
    <path d="M54.0502 25.718H36.0125C35.4936 25.718 35.073 26.1385 35.073 26.6575C35.073 27.1765 35.4935 27.597 36.0125 27.597H54.0502C54.5691 27.597 54.9896 27.1765 54.9896 26.6575C54.9896 26.1385 54.5691 25.718 54.0502 25.718Z" fill="rgb(181, 127, 27)"/>
    <path d="M42.3257 30.7285H36.0125C35.4936 30.7285 35.073 31.1489 35.073 31.668C35.073 32.1869 35.4935 32.6075 36.0125 32.6075H42.3257C42.8446 32.6075 43.2652 32.187 43.2652 31.668C43.2652 31.1489 42.8447 30.7285 42.3257 30.7285Z" fill="rgb(181, 127, 27)"/>
    <path d="M54.0502 30.7285H45.9333C45.4144 30.7285 44.9938 31.1489 44.9938 31.668C44.9938 32.1869 45.4143 32.6075 45.9333 32.6075H54.0502C54.5691 32.6075 54.9896 32.187 54.9896 31.668C54.9895 31.1489 54.5691 30.7285 54.0502 30.7285Z" fill="rgb(181, 127, 27)"/>
    <path d="M49.5407 37.7431H40.5219C40.003 37.7431 39.5824 38.1635 39.5824 38.6826C39.5824 39.2015 40.0029 39.6221 40.5219 39.6221H49.5407C50.0596 39.6221 50.4802 39.2016 50.4802 38.6826C50.4802 38.1635 50.0597 37.7431 49.5407 37.7431Z" fill="rgb(181, 127, 27)"/>
  </g>
  <defs>
    <clipPath id="clip0_2790_21">
      <rect width="60" height="60" fill="white" transform="translate(1.45888e-06 0.164797)"/>
    </clipPath>
  </defs>
</svg>