<svg xmlns="http://www.w3.org/2000/svg" width="61" height="61" viewBox="0 0 61 61" fill="none">
  <g clip-path="url(#clip0_2790_12)">
    <path d="M50.1866 27.6255L30.7374 39.2239L11.6612 27.6255L10.0751 37.5296C10.082 37.5157 10.096 37.5052 10.1134 37.4843C9.8868 37.8643 9.75781 38.2582 9.75781 38.6591C9.75781 42.1557 25.1596 52.9314 30.0506 52.9314C34.9452 52.9314 52.0935 42.1557 52.0935 38.6591C52.0935 38.2791 51.968 37.9131 51.7728 36.8045L50.1866 27.6255Z" fill="rgb(181, 127, 27)"/>
    <path d="M60.8643 24.423L30.9671 15L4.26325 23.5166C3.88674 23.5759 3.53116 23.6735 3.24878 23.8409C2.90714 24.0431 2.67357 24.3359 2.65614 24.7682C2.5132 26.4973 0.864258 46.3753 0.864258 46.3753L2.65614 52.3296L4.31903 46.3753L3.61482 25.8907L30.8869 42.6695L60.8643 24.423ZM28.8057 25.2771H3.59391L6.22943 23.8374H28.4885C28.7778 23.3319 29.4611 22.9763 30.2559 22.9763C31.3157 22.9763 32.1733 23.6073 32.1733 24.3812C32.1733 25.1586 31.3157 25.7896 30.2559 25.7896C29.6633 25.7966 29.1543 25.5874 28.8057 25.2771Z" fill="rgb(181, 127, 27)"/>
  </g>
  <defs>
    <clipPath id="clip0_2790_12">
      <rect width="60" height="60" fill="white" transform="translate(0.864258 0.5)"/>
    </clipPath>
  </defs>
</svg>